<svg xmlns="http://www.w3.org/2000/svg" viewBox="0 0 100 70" width="160" height="112" fill="none">
  <defs>
    <linearGradient id="body-BRONZE-body" x1="0" y1="0" x2="0" y2="1">
      <stop offset="0" stop-color="#E4A974"/>
      <stop offset="0.5" stop-color="#C68B59"/>
      <stop offset="1" stop-color="#8E5A2E"/>
    </linearGradient>
    <linearGradient id="body-BRONZE-metal" x1="0" y1="0" x2="0" y2="1">
      <stop offset="0" stop-color="#D9A37A"/>
      <stop offset="0.5" stop-color="#A86C3A"/>
      <stop offset="1" stop-color="#6B3F1A"/>
    </linearGradient>
    <radialGradient id="body-BRONZE-keyhole" cx="0.5" cy="0.45" r="0.6">
      <stop offset="0" stop-color="#6B3F1A"/>
      <stop offset="1" stop-color="#000000"/>
    </radialGradient>
  </defs>
  <path d="M4 4 H96 V60 a6 6 0 0 1 -6 6 H10 a6 6 0 0 1 -6 -6 Z" fill="url(#body-BRONZE-body)" stroke="#6B3F1A" stroke-width="2.2" stroke-linejoin="round"/>
  <rect x="2" y="56" width="96" height="9" rx="2" fill="url(#body-BRONZE-metal)" stroke="#6B3F1A" stroke-width="1.6"/>
  <circle cx="10" cy="60.5" r="1.6" fill="#D9A37A" stroke="#6B3F1A" stroke-width="0.8"/>
  <circle cx="50" cy="60.5" r="1.6" fill="#D9A37A" stroke="#6B3F1A" stroke-width="0.8"/>
  <circle cx="90" cy="60.5" r="1.6" fill="#D9A37A" stroke="#6B3F1A" stroke-width="0.8"/>
  <rect x="6" y="4" width="8" height="56" fill="url(#body-BRONZE-metal)" stroke="#6B3F1A" stroke-width="1.4"/>
  <rect x="86" y="4" width="8" height="56" fill="url(#body-BRONZE-metal)" stroke="#6B3F1A" stroke-width="1.4"/>
  <circle cx="10" cy="10" r="1.4" fill="#D9A37A" stroke="#6B3F1A" stroke-width="0.7"/>
  <circle cx="10" cy="30" r="1.4" fill="#D9A37A" stroke="#6B3F1A" stroke-width="0.7"/>
  <circle cx="10" cy="50" r="1.4" fill="#D9A37A" stroke="#6B3F1A" stroke-width="0.7"/>
  <circle cx="90" cy="10" r="1.4" fill="#D9A37A" stroke="#6B3F1A" stroke-width="0.7"/>
  <circle cx="90" cy="30" r="1.4" fill="#D9A37A" stroke="#6B3F1A" stroke-width="0.7"/>
  <circle cx="90" cy="50" r="1.4" fill="#D9A37A" stroke="#6B3F1A" stroke-width="0.7"/>
  <rect x="42" y="20" width="16" height="22" rx="2" fill="url(#body-BRONZE-metal)" stroke="#6B3F1A" stroke-width="1.6"/>
  <circle cx="50" cy="28" r="2.4" fill="url(#body-BRONZE-keyhole)" stroke="#6B3F1A" stroke-width="0.8"/>
  <path d="M50 30 L48.5 36 H51.5 Z" fill="#6B3F1A"/>
  <rect x="17" y="6" width="2.5" height="48" fill="#FFD7A8" opacity="0.25" rx="1"/>
</svg>