<svg xmlns="http://www.w3.org/2000/svg" viewBox="0 0 100 50" width="160" height="80" fill="none">
  <defs>
    <linearGradient id="lid-CHAMPION-lid" x1="0" y1="0" x2="0" y2="1">
      <stop offset="0" stop-color="#FFA888"/>
      <stop offset="0.65" stop-color="#FF7A59"/>
      <stop offset="1" stop-color="#C04A2D"/>
    </linearGradient>
    <linearGradient id="lid-CHAMPION-metal" x1="0" y1="0" x2="0" y2="1">
      <stop offset="0" stop-color="#FFD968"/>
      <stop offset="1" stop-color="#7A5A0E"/>
    </linearGradient>
  </defs>
  <path d="M4 46 V22 a18 18 0 0 1 18 -18 h56 a18 18 0 0 1 18 18 v24 Z" fill="url(#lid-CHAMPION-lid)" stroke="#7A2812" stroke-width="2.2" stroke-linejoin="round"/>
  <path d="M6 14 a16 16 0 0 1 8 -10 H14 V46 H6 Z" fill="url(#lid-CHAMPION-metal)" stroke="#7A2812" stroke-width="1.4" stroke-linejoin="round"/>
  <path d="M94 14 a16 16 0 0 0 -8 -10 H86 V46 H94 Z" fill="url(#lid-CHAMPION-metal)" stroke="#7A2812" stroke-width="1.4" stroke-linejoin="round"/>
  <circle cx="10" cy="42" r="1.4" fill="#FFD968" stroke="#7A2812" stroke-width="0.7"/>
  <circle cx="90" cy="42" r="1.4" fill="#FFD968" stroke="#7A2812" stroke-width="0.7"/>
  <circle cx="10" cy="20" r="1.4" fill="#FFD968" stroke="#7A2812" stroke-width="0.7"/>
  <circle cx="90" cy="20" r="1.4" fill="#FFD968" stroke="#7A2812" stroke-width="0.7"/>
  <rect x="2" y="42" width="96" height="6" fill="url(#lid-CHAMPION-metal)" stroke="#7A2812" stroke-width="1.4"/>
  <path d="M18 16 a14 14 0 0 1 14 -10" stroke="#FFD9C2" stroke-width="2.2" stroke-linecap="round" fill="none" opacity="0.85"/>
  <defs>
    <radialGradient id="lid-CHAMPION-gem" cx="0.4" cy="0.35" r="0.7">
      <stop offset="0" stop-color="#FFC8C8"/>
      <stop offset="0.5" stop-color="#FF3A3A"/>
      <stop offset="1" stop-color="#7A2812"/>
    </radialGradient>
  </defs>
  <ellipse cx="50" cy="22" rx="7" ry="9" fill="url(#lid-CHAMPION-gem)" stroke="#7A2812" stroke-width="1.4"/>
  <ellipse cx="48" cy="19" rx="2" ry="3" fill="#FFC8C8" opacity="0.85"/>
  <g transform="translate(0 1)">
    <path d="M40 5 L44 -1 L50 4 L56 -1 L60 5 L60 9 L40 9 Z" fill="#D6A012" stroke="#7A2812" stroke-width="1.4" stroke-linejoin="round"/>
    <circle cx="44" cy="1" r="1.6" fill="#FF3A3A" stroke="#7A2812" stroke-width="0.7"/>
    <circle cx="50" cy="4.5" r="1.6" fill="#FF3A3A" stroke="#7A2812" stroke-width="0.7"/>
    <circle cx="56" cy="1" r="1.6" fill="#FF3A3A" stroke="#7A2812" stroke-width="0.7"/>
  </g>
</svg>