<svg xmlns="http://www.w3.org/2000/svg" viewBox="0 0 26 24" width="34" height="32" fill="none">
  <defs>
    <linearGradient id="mini-DIAMOND-body" x1="0" y1="0" x2="0" y2="1">
      <stop offset="0" stop-color="#C7D5FF"/>
      <stop offset="1" stop-color="#5A77D4"/>
    </linearGradient>
    <linearGradient id="mini-DIAMOND-lid" x1="0" y1="0" x2="0" y2="1">
      <stop offset="0" stop-color="#C7D5FF"/>
      <stop offset="1" stop-color="#9AB3FF"/>
    </linearGradient>
  </defs>
  <path d="M3 12 H23 V21 a1.5 1.5 0 0 1 -1.5 1.5 H4.5 A1.5 1.5 0 0 1 3 21 Z" fill="url(#mini-DIAMOND-body)" stroke="#2B3F8E" stroke-width="1.4" stroke-linejoin="round"/>
  <path d="M3 12 V8 a4 4 0 0 1 4 -4 h12 a4 4 0 0 1 4 4 v4 Z" fill="url(#mini-DIAMOND-lid)" stroke="#2B3F8E" stroke-width="1.4" stroke-linejoin="round"/>
  <path d="M3 12 H23" stroke="#2B3F8E" stroke-width="1.4" stroke-linecap="round"/>
  <rect x="11" y="13.5" width="4" height="5" rx="0.6" fill="#2B3F8E"/>
  <circle cx="13" cy="15.2" r="0.7" fill="#2B3F8E"/>
  <path d="M6 8 a5 5 0 0 1 5 -3" stroke="#E2EAFF" stroke-width="0.9" stroke-linecap="round" fill="none" opacity="0.85"/>
</svg>