<svg xmlns="http://www.w3.org/2000/svg" viewBox="0 0 26 24" width="34" height="32" fill="none">
  <defs>
    <linearGradient id="mini-SILVER-body" x1="0" y1="0" x2="0" y2="1">
      <stop offset="0" stop-color="#DCE4EB"/>
      <stop offset="1" stop-color="#8A98A4"/>
    </linearGradient>
    <linearGradient id="mini-SILVER-lid" x1="0" y1="0" x2="0" y2="1">
      <stop offset="0" stop-color="#DCE4EB"/>
      <stop offset="1" stop-color="#C0CBD4"/>
    </linearGradient>
  </defs>
  <path d="M3 12 H23 V21 a1.5 1.5 0 0 1 -1.5 1.5 H4.5 A1.5 1.5 0 0 1 3 21 Z" fill="url(#mini-SILVER-body)" stroke="#5F6F7B" stroke-width="1.4" stroke-linejoin="round"/>
  <path d="M3 12 V8 a4 4 0 0 1 4 -4 h12 a4 4 0 0 1 4 4 v4 Z" fill="url(#mini-SILVER-lid)" stroke="#5F6F7B" stroke-width="1.4" stroke-linejoin="round"/>
  <path d="M3 12 H23" stroke="#5F6F7B" stroke-width="1.4" stroke-linecap="round"/>
  <rect x="11" y="13.5" width="4" height="5" rx="0.6" fill="#5F6F7B"/>
  <circle cx="13" cy="15.2" r="0.7" fill="#5F6F7B"/>
  <path d="M6 8 a5 5 0 0 1 5 -3" stroke="#F0F5F9" stroke-width="0.9" stroke-linecap="round" fill="none" opacity="0.85"/>
</svg>